# xmcd
#
# Track frame offsets:
#	182
#	12620
#	25152
#	38290
#	54745
#	68760
#	83327
#	97765
#	110107
#	123200
#	138390
#	147882
#
# Disc length: 2154 seconds
#
# Revision: 1
# Processed by: cddbd v1.5.2PL0 Copyright (c) Steve Scherf et al.
# Submitted via: audiograbber 1.83.01
#
DISCID=9308680c
DTITLE=Chris Jones - Blinded by the rose
DYEAR=1995
DGENRE=Bluegrass
TTITLE0=You can take your time
TTITLE1=Dark wind of Missouri
TTITLE2=House of memories
TTITLE3=John Henry
TTITLE4=Will you be there
TTITLE5=Blinded by the rose
TTITLE6=Looks like the blues got me
TTITLE7=You'll lay it all down
TTITLE8=Alone with you
TTITLE9=Dark side of the moon
TTITLE10=George Buck
TTITLE11=Zion's hill
EXTD=
EXTT0=
EXTT1=
EXTT2=
EXTT3=
EXTT4=
EXTT5=
EXTT6=
EXTT7=
EXTT8=
EXTT9=
EXTT10=
EXTT11=
PLAYORDER=
